<svg width="442.11118011951856" height="327.09375" viewBox="0 0 200 147.9690017843814" class="looka-1j8o68f" xmlns="http://www.w3.org/2000/svg"><defs id="SvgjsDefs4498"></defs><g id="SvgjsG4499" featurekey="8FbbNb-0" transform="matrix(5.589420731713818,0,0,5.589420731713818,-4.255229154437641,-30.07611882124596)" fill="#000000"><path d="M14.902 13.6719 l-1.4844 6.3672 l-4.8926 0 l1.3867 -5.9766 l-2.832 0 l-1.3965 5.9766 l-4.9219 0 l1.4746 -6.3672 l-0.98633 0 l1.8848 -8.2422 l4.9219 0 l-1.123 4.9512 l2.8223 0 l1.1426 -4.9512 l4.9023 0 l-1.9043 8.2422 l1.0059 0 z M22.070321875 13.6719 l-1.4648 6.3672 l-4.9414 0 l1.4648 -6.3672 l-0.99609 0 l1.9141 -8.2422 l4.9316 0 l-1.8945 8.2422 l0.98633 0 z M31.728640625 13.3594 l-1.4844 6.6797 l-4.9512 0 l1.5234 -6.6797 l-0.88867 0 l0.98633 -4.2773 l-3.9063 0 l0.85938 -3.7012 l12.676 0 l-0.83008 3.7012 l-3.8965 0 l-0.95703 4.2773 l0.86914 0 z"></path></g><g id="SvgjsG4500" featurekey="8FbbNb-1" transform="matrix(3.6914135740953293,0,0,3.6914135740953293,-2.5953597101888866,72.89423917893986)" fill="#000000"><path d="M2.2363 13.3594 l-0.88867 0 l1.8164 -7.9785 c1.6992 0 4.7656 -0.16602 7.1875 0.15625 c2.1387 0.3125 4.209 1.1035 3.8477 3.6719 c-0.20508 1.5527 -1.3965 3.1445 -2.6855 4.1504 l0.87891 0 c-0.23438 0.17578 -0.46875 0.36133 -0.72266 0.48828 l3.3398 6.1914 l-5.8594 0 l-2.4414 -4.7754 l-1.084 4.7754 l-4.9219 0 z M7.2754 8.994 l-0.5957 2.5195 c2.3535 0 3.6719 -2.5195 0.5957 -2.5195 z M17.431609375 13.6328 l-1.123 0 l4.5898 -8.1934 l4.873 0 l0.79102 8.1934 l1.0938 0 l0.61523 6.3574 l-5.0293 0 l-0.20508 -2.7441 l-2.7832 0 c-0.48828 0.9082 -0.94727 1.8262 -1.4355 2.7441 l-4.9414 0 z M22.910109374999998 13.837900000000001 l0 -0.20508 l-1.0645 0 l0.019531 -3.2422 l-1.3086 3.2422 l1.084 0 l-0.078125 0.20508 l1.3477 0 z M33.5253625 13.6328 l1.1133 0 c-0.17578 2.3535 1.4258 4.1211 5.9375 1.2207 l1.4648 0 l-0.91797 3.9844 c-4.9512 2.8516 -12.295 1.9922 -11.221 -5.2051 l-1.1035 0 c0.058594 -0.26367 0.11719 -0.57617 0.19531 -0.91797 c0.99609 -4.3652 4.3262 -7.5391 8.9648 -7.5391 c2.5586 0 4.0332 0.73242 4.9121 1.3379 l-0.94727 4.082 l-1.5723 0 c-3.5352 -3.8086 -6.5918 0.078125 -6.8262 3.0371 z M43.50585625 13.6719 l-0.99609 0 l1.9141 -8.2422 l10.459 0 l-0.83984 3.7012 l-5.5762 0 l-0.29297 1.25 l5.127 0 l-0.75195 3.291 l0.99609 0 l-0.087891 0.39063 l-5.1367 0 l-0.51758 2.2852 l5.5566 0 l-0.83984 3.6914 l-10.479 0 z"></path></g></svg>