<svg xmlns="http://www.w3.org/2000/svg" xmlns:xlink="http://www.w3.org/1999/xlink" width="220" zoomAndPan="magnify" viewBox="0 0 165 30.000001" height="40" preserveAspectRatio="xMidYMid meet" version="1.0"><defs><g/><clipPath id="eabe173815"><path d="M 2.660156 1.886719 L 162.335938 1.886719 L 162.335938 18.578125 L 2.660156 18.578125 Z M 2.660156 1.886719 " clip-rule="nonzero"/></clipPath></defs><g clip-path="url(#eabe173815)"><path fill="#ffffff" d="M 18.0625 11.15625 L 16.46875 18.101562 L 11.21875 18.101562 L 12.707031 11.582031 L 9.667969 11.582031 L 8.171875 18.101562 L 2.886719 18.101562 L 4.472656 11.15625 L 3.414062 11.15625 L 5.433594 2.164062 L 10.714844 2.164062 L 9.511719 7.566406 L 12.539062 7.566406 L 13.765625 2.164062 L 19.027344 2.164062 L 16.984375 11.15625 Z M 25.753906 11.15625 L 24.183594 18.101562 L 18.878906 18.101562 L 20.453125 11.15625 L 19.382812 11.15625 L 21.4375 2.164062 L 26.730469 2.164062 L 24.695312 11.15625 Z M 36.117188 10.8125 L 34.527344 18.101562 L 29.210938 18.101562 L 30.847656 10.8125 L 29.894531 10.8125 L 30.953125 6.148438 L 26.761719 6.148438 L 27.683594 2.109375 L 41.285156 2.109375 L 40.394531 6.148438 L 36.214844 6.148438 L 35.1875 10.8125 Z M 50.644531 10.8125 L 49.6875 10.8125 L 51.636719 2.109375 C 53.460938 2.109375 56.753906 1.929688 59.351562 2.28125 C 61.644531 2.621094 63.867188 3.484375 63.480469 6.285156 C 63.261719 7.980469 61.980469 9.714844 60.597656 10.8125 L 61.542969 10.8125 C 61.289062 11.003906 61.039062 11.207031 60.765625 11.347656 L 64.351562 18.101562 L 58.0625 18.101562 L 55.441406 12.890625 L 54.277344 18.101562 L 48.996094 18.101562 Z M 56.050781 6.050781 L 55.410156 8.800781 C 57.9375 8.800781 59.351562 6.050781 56.050781 6.050781 Z M 66.949219 11.113281 L 65.742188 11.113281 L 70.667969 2.175781 L 75.898438 2.175781 L 76.746094 11.113281 L 77.921875 11.113281 L 78.582031 18.046875 L 73.183594 18.046875 L 72.964844 15.054688 L 69.976562 15.054688 C 69.453125 16.042969 68.960938 17.046875 68.4375 18.046875 L 63.132812 18.046875 Z M 72.828125 11.335938 L 72.828125 11.113281 L 71.683594 11.113281 L 71.707031 7.574219 L 70.300781 11.113281 L 71.464844 11.113281 L 71.382812 11.335938 Z M 84.21875 11.113281 L 85.414062 11.113281 C 85.222656 13.679688 86.941406 15.609375 91.785156 12.445312 L 93.355469 12.445312 L 92.371094 16.789062 C 87.058594 19.902344 79.179688 18.964844 80.332031 11.113281 L 79.144531 11.113281 C 79.210938 10.824219 79.273438 10.484375 79.355469 10.109375 C 80.425781 5.347656 84 1.886719 88.976562 1.886719 C 91.722656 1.886719 93.304688 2.683594 94.246094 3.347656 L 93.230469 7.796875 L 91.542969 7.796875 C 87.75 3.644531 84.46875 7.882812 84.21875 11.113281 Z M 94.929688 11.15625 L 93.859375 11.15625 L 95.914062 2.164062 L 107.136719 2.164062 L 106.234375 6.199219 L 100.25 6.199219 L 99.9375 7.566406 L 105.4375 7.566406 L 104.632812 11.15625 L 105.703125 11.15625 L 105.605469 11.582031 L 100.09375 11.582031 L 99.539062 14.074219 L 105.503906 14.074219 L 104.601562 18.101562 L 93.355469 18.101562 Z M 118.464844 11.113281 C 119.144531 8.140625 119.828125 5.15625 120.507812 2.183594 L 126.796875 2.183594 C 130.558594 2.183594 133.1875 4.167969 131.460938 8.5 C 131.019531 9.578125 130.433594 10.441406 129.761719 11.113281 L 130.714844 11.113281 C 129.070312 12.71875 126.796875 13.265625 124.175781 13.265625 L 123.085938 18.046875 L 117.867188 18.046875 L 119.4375 11.113281 Z M 124.824219 6.136719 C 124.605469 7.179688 124.355469 8.246094 124.125 9.332031 C 126.734375 9.195312 127.707031 6.136719 124.824219 6.136719 Z M 133.1875 10.8125 L 132.234375 10.8125 L 134.183594 2.109375 C 136.007812 2.109375 139.296875 1.929688 141.898438 2.28125 C 144.191406 2.621094 146.414062 3.484375 146.027344 6.285156 C 145.804688 7.980469 144.527344 9.714844 143.144531 10.8125 L 144.085938 10.8125 C 143.835938 11.003906 143.582031 11.207031 143.3125 11.347656 L 146.894531 18.101562 L 140.609375 18.101562 L 137.988281 12.890625 L 136.824219 18.101562 L 131.542969 18.101562 Z M 138.59375 6.050781 L 137.957031 8.800781 C 140.480469 8.800781 141.898438 6.050781 138.59375 6.050781 Z M 161.273438 10.25 C 161.1875 10.589844 161.09375 10.929688 160.96875 11.28125 L 162.113281 11.28125 C 160.78125 15.511719 157.394531 18.578125 152.753906 18.578125 C 147.964844 18.578125 146.097656 15.511719 146.707031 11.28125 L 145.597656 11.28125 C 145.636719 10.929688 145.691406 10.589844 145.765625 10.25 C 146.875 5.378906 150.34375 1.898438 155.382812 1.898438 C 160.320312 1.898438 162.351562 5.414062 161.273438 10.25 Z M 156.671875 11.28125 L 155.539062 11.28125 C 155.644531 10.929688 155.75 10.589844 155.824219 10.226562 C 157.152344 4.378906 152.511719 4.550781 151.210938 10.25 C 151.140625 10.621094 151.085938 10.960938 151.035156 11.28125 L 152.164062 11.28125 C 151.621094 15.734375 155.195312 15.640625 156.671875 11.28125 Z M 156.671875 11.28125 " fill-opacity="1" fill-rule="nonzero"/></g><g fill="#ffffff" fill-opacity="1"><g transform="translate(64.835556, 25.655526)"><g><path d="M 0.59375 0 L 0.59375 -4.796875 L 4.59375 -4.796875 C 4.894531 -4.796875 5.132812 -4.769531 5.3125 -4.71875 C 5.5 -4.664062 5.640625 -4.59375 5.734375 -4.5 C 5.835938 -4.40625 5.90625 -4.285156 5.9375 -4.140625 C 5.96875 -4.003906 5.984375 -3.84375 5.984375 -3.65625 C 5.984375 -3.53125 5.972656 -3.414062 5.953125 -3.3125 C 5.929688 -3.207031 5.898438 -3.117188 5.859375 -3.046875 C 5.828125 -2.972656 5.785156 -2.910156 5.734375 -2.859375 C 5.691406 -2.804688 5.644531 -2.765625 5.59375 -2.734375 C 5.476562 -2.648438 5.34375 -2.601562 5.1875 -2.59375 C 5.375 -2.582031 5.539062 -2.535156 5.6875 -2.453125 C 5.75 -2.421875 5.8125 -2.378906 5.875 -2.328125 C 5.9375 -2.273438 5.988281 -2.207031 6.03125 -2.125 C 6.082031 -2.050781 6.117188 -1.960938 6.140625 -1.859375 C 6.171875 -1.753906 6.1875 -1.628906 6.1875 -1.484375 C 6.1875 -1.316406 6.175781 -1.164062 6.15625 -1.03125 C 6.144531 -0.894531 6.113281 -0.769531 6.0625 -0.65625 C 6.019531 -0.550781 5.953125 -0.457031 5.859375 -0.375 C 5.773438 -0.289062 5.65625 -0.21875 5.5 -0.15625 C 5.351562 -0.101562 5.171875 -0.0625 4.953125 -0.03125 C 4.742188 -0.0078125 4.488281 0 4.1875 0 Z M 3.984375 -0.5 C 4.222656 -0.5 4.425781 -0.5 4.59375 -0.5 C 4.769531 -0.507812 4.914062 -0.523438 5.03125 -0.546875 C 5.144531 -0.578125 5.238281 -0.613281 5.3125 -0.65625 C 5.382812 -0.707031 5.441406 -0.769531 5.484375 -0.84375 C 5.523438 -0.914062 5.550781 -1.003906 5.5625 -1.109375 C 5.582031 -1.210938 5.59375 -1.335938 5.59375 -1.484375 C 5.59375 -1.609375 5.582031 -1.710938 5.5625 -1.796875 C 5.550781 -1.878906 5.523438 -1.953125 5.484375 -2.015625 C 5.441406 -2.078125 5.382812 -2.125 5.3125 -2.15625 C 5.238281 -2.195312 5.144531 -2.226562 5.03125 -2.25 C 4.914062 -2.269531 4.769531 -2.28125 4.59375 -2.28125 C 4.425781 -2.289062 4.222656 -2.296875 3.984375 -2.296875 L 1.203125 -2.296875 L 1.203125 -0.5 Z M 3.984375 -2.796875 C 4.191406 -2.796875 4.367188 -2.800781 4.515625 -2.8125 C 4.660156 -2.820312 4.785156 -2.835938 4.890625 -2.859375 C 4.992188 -2.878906 5.078125 -2.910156 5.140625 -2.953125 C 5.210938 -2.992188 5.265625 -3.046875 5.296875 -3.109375 C 5.335938 -3.171875 5.363281 -3.242188 5.375 -3.328125 C 5.382812 -3.421875 5.390625 -3.53125 5.390625 -3.65625 C 5.390625 -3.789062 5.375 -3.898438 5.34375 -3.984375 C 5.320312 -4.066406 5.269531 -4.128906 5.1875 -4.171875 C 5.113281 -4.222656 5.015625 -4.253906 4.890625 -4.265625 C 4.765625 -4.285156 4.597656 -4.296875 4.390625 -4.296875 L 1.203125 -4.296875 L 1.203125 -2.796875 Z M 3.984375 -2.796875 "/></g></g><g transform="translate(71.422236, 25.655526)"><g><path d="M 5.5 -1.09375 L 1.703125 -1.09375 L 1.109375 0 L 0.40625 0 L 3.203125 -4.796875 L 4 -4.796875 L 6.796875 0 L 6.09375 0 Z M 5.203125 -1.59375 L 3.59375 -4.390625 L 2 -1.59375 Z M 4.6875 -6.578125 L 4.296875 -7.1875 L 2.5 -5.6875 L 2.6875 -5.390625 Z M 4.6875 -6.578125 "/></g></g><g transform="translate(78.607705, 25.655526)"><g><path d="M 3.625 -2.703125 C 3.945312 -2.703125 4.222656 -2.6875 4.453125 -2.65625 C 4.691406 -2.625 4.890625 -2.582031 5.046875 -2.53125 C 5.210938 -2.476562 5.34375 -2.410156 5.4375 -2.328125 C 5.539062 -2.253906 5.617188 -2.164062 5.671875 -2.0625 C 5.722656 -1.96875 5.753906 -1.859375 5.765625 -1.734375 C 5.785156 -1.609375 5.796875 -1.472656 5.796875 -1.328125 C 5.796875 -1.179688 5.78125 -1.039062 5.75 -0.90625 C 5.726562 -0.78125 5.679688 -0.664062 5.609375 -0.5625 C 5.546875 -0.457031 5.457031 -0.363281 5.34375 -0.28125 C 5.226562 -0.195312 5.082031 -0.125 4.90625 -0.0625 C 4.726562 -0.0078125 4.515625 0.03125 4.265625 0.0625 C 4.015625 0.09375 3.722656 0.109375 3.390625 0.109375 L 2.59375 0.109375 C 2.289062 0.109375 2.023438 0.0976562 1.796875 0.078125 C 1.578125 0.0546875 1.382812 0.0234375 1.21875 -0.015625 C 1.0625 -0.0664062 0.929688 -0.128906 0.828125 -0.203125 C 0.722656 -0.273438 0.640625 -0.359375 0.578125 -0.453125 C 0.515625 -0.554688 0.46875 -0.664062 0.4375 -0.78125 C 0.414062 -0.90625 0.40625 -1.046875 0.40625 -1.203125 L 1 -1.203125 C 1 -1.015625 1.023438 -0.863281 1.078125 -0.75 C 1.128906 -0.644531 1.21875 -0.566406 1.34375 -0.515625 C 1.46875 -0.460938 1.628906 -0.429688 1.828125 -0.421875 C 2.035156 -0.410156 2.289062 -0.40625 2.59375 -0.40625 L 3.390625 -0.40625 C 3.742188 -0.40625 4.035156 -0.421875 4.265625 -0.453125 C 4.492188 -0.484375 4.675781 -0.535156 4.8125 -0.609375 C 4.957031 -0.679688 5.054688 -0.773438 5.109375 -0.890625 C 5.160156 -1.003906 5.1875 -1.148438 5.1875 -1.328125 C 5.1875 -1.492188 5.164062 -1.628906 5.125 -1.734375 C 5.09375 -1.847656 5.019531 -1.9375 4.90625 -2 C 4.789062 -2.070312 4.628906 -2.125 4.421875 -2.15625 C 4.222656 -2.1875 3.957031 -2.203125 3.625 -2.203125 L 2.796875 -2.203125 C 2.429688 -2.203125 2.117188 -2.210938 1.859375 -2.234375 C 1.597656 -2.265625 1.378906 -2.304688 1.203125 -2.359375 C 1.023438 -2.410156 0.878906 -2.472656 0.765625 -2.546875 C 0.660156 -2.617188 0.582031 -2.703125 0.53125 -2.796875 C 0.476562 -2.898438 0.441406 -3.007812 0.421875 -3.125 C 0.410156 -3.25 0.40625 -3.378906 0.40625 -3.515625 C 0.40625 -3.660156 0.414062 -3.796875 0.4375 -3.921875 C 0.46875 -4.046875 0.515625 -4.160156 0.578125 -4.265625 C 0.648438 -4.367188 0.75 -4.457031 0.875 -4.53125 C 1 -4.613281 1.15625 -4.679688 1.34375 -4.734375 C 1.539062 -4.785156 1.773438 -4.820312 2.046875 -4.84375 C 2.316406 -4.875 2.632812 -4.890625 3 -4.890625 L 3.59375 -4.890625 C 3.894531 -4.890625 4.15625 -4.878906 4.375 -4.859375 C 4.601562 -4.835938 4.796875 -4.800781 4.953125 -4.75 C 5.117188 -4.707031 5.253906 -4.648438 5.359375 -4.578125 C 5.472656 -4.515625 5.5625 -4.429688 5.625 -4.328125 C 5.6875 -4.234375 5.726562 -4.125 5.75 -4 C 5.78125 -3.875 5.796875 -3.738281 5.796875 -3.59375 L 5.1875 -3.59375 C 5.1875 -3.78125 5.160156 -3.925781 5.109375 -4.03125 C 5.054688 -4.132812 4.96875 -4.210938 4.84375 -4.265625 C 4.71875 -4.328125 4.550781 -4.363281 4.34375 -4.375 C 4.144531 -4.382812 3.894531 -4.390625 3.59375 -4.390625 L 3 -4.390625 C 2.59375 -4.390625 2.257812 -4.375 2 -4.34375 C 1.75 -4.320312 1.546875 -4.273438 1.390625 -4.203125 C 1.242188 -4.140625 1.140625 -4.050781 1.078125 -3.9375 C 1.023438 -3.820312 1 -3.679688 1 -3.515625 C 1 -3.410156 1.003906 -3.316406 1.015625 -3.234375 C 1.035156 -3.160156 1.066406 -3.09375 1.109375 -3.03125 C 1.148438 -2.96875 1.210938 -2.914062 1.296875 -2.875 C 1.378906 -2.832031 1.484375 -2.796875 1.609375 -2.765625 C 1.742188 -2.742188 1.90625 -2.726562 2.09375 -2.71875 C 2.289062 -2.707031 2.523438 -2.703125 2.796875 -2.703125 Z M 3.625 -2.703125 "/></g></g><g transform="translate(84.795192, 25.655526)"><g><path d="M 0.59375 -4.796875 L 1.203125 -4.796875 L 1.203125 0 L 0.59375 0 Z M 0.59375 -4.796875 "/></g></g><g transform="translate(86.59156, 25.655526)"><g><path d="M 5.59375 -3.296875 C 5.59375 -3.546875 5.5625 -3.742188 5.5 -3.890625 C 5.445312 -4.035156 5.359375 -4.144531 5.234375 -4.21875 C 5.109375 -4.289062 4.941406 -4.335938 4.734375 -4.359375 C 4.535156 -4.378906 4.289062 -4.390625 4 -4.390625 L 2.59375 -4.390625 C 2.320312 -4.390625 2.09375 -4.378906 1.90625 -4.359375 C 1.726562 -4.347656 1.582031 -4.316406 1.46875 -4.265625 C 1.351562 -4.222656 1.257812 -4.15625 1.1875 -4.0625 C 1.125 -3.976562 1.078125 -3.859375 1.046875 -3.703125 C 1.023438 -3.554688 1.007812 -3.375 1 -3.15625 C 1 -2.945312 1 -2.691406 1 -2.390625 C 1 -2.097656 1 -1.84375 1 -1.625 C 1.007812 -1.40625 1.023438 -1.222656 1.046875 -1.078125 C 1.078125 -0.929688 1.125 -0.8125 1.1875 -0.71875 C 1.257812 -0.632812 1.351562 -0.566406 1.46875 -0.515625 C 1.582031 -0.472656 1.726562 -0.441406 1.90625 -0.421875 C 2.09375 -0.410156 2.320312 -0.40625 2.59375 -0.40625 L 4 -0.40625 C 4.226562 -0.40625 4.425781 -0.410156 4.59375 -0.421875 C 4.757812 -0.429688 4.898438 -0.453125 5.015625 -0.484375 C 5.140625 -0.515625 5.238281 -0.5625 5.3125 -0.625 C 5.382812 -0.6875 5.441406 -0.757812 5.484375 -0.84375 C 5.523438 -0.9375 5.550781 -1.039062 5.5625 -1.15625 C 5.582031 -1.28125 5.59375 -1.425781 5.59375 -1.59375 L 6.1875 -1.59375 C 6.1875 -1.394531 6.171875 -1.210938 6.140625 -1.046875 C 6.117188 -0.890625 6.078125 -0.75 6.015625 -0.625 C 5.953125 -0.5 5.867188 -0.390625 5.765625 -0.296875 C 5.660156 -0.203125 5.523438 -0.125 5.359375 -0.0625 C 5.203125 -0.0078125 5.007812 0.0234375 4.78125 0.046875 C 4.550781 0.078125 4.289062 0.09375 4 0.09375 L 2.59375 0.09375 C 2.226562 0.09375 1.921875 0.0703125 1.671875 0.03125 C 1.421875 -0.0078125 1.210938 -0.078125 1.046875 -0.171875 C 0.890625 -0.265625 0.765625 -0.378906 0.671875 -0.515625 C 0.585938 -0.648438 0.523438 -0.804688 0.484375 -0.984375 C 0.441406 -1.171875 0.414062 -1.378906 0.40625 -1.609375 C 0.40625 -1.847656 0.40625 -2.109375 0.40625 -2.390625 C 0.40625 -2.679688 0.40625 -2.941406 0.40625 -3.171875 C 0.414062 -3.398438 0.441406 -3.609375 0.484375 -3.796875 C 0.523438 -3.984375 0.585938 -4.144531 0.671875 -4.28125 C 0.765625 -4.414062 0.890625 -4.53125 1.046875 -4.625 C 1.210938 -4.71875 1.421875 -4.785156 1.671875 -4.828125 C 1.921875 -4.867188 2.226562 -4.890625 2.59375 -4.890625 L 4 -4.890625 C 4.289062 -4.890625 4.550781 -4.875 4.78125 -4.84375 C 5.007812 -4.820312 5.203125 -4.78125 5.359375 -4.71875 C 5.523438 -4.664062 5.660156 -4.59375 5.765625 -4.5 C 5.867188 -4.414062 5.953125 -4.3125 6.015625 -4.1875 C 6.078125 -4.070312 6.117188 -3.9375 6.140625 -3.78125 C 6.171875 -3.632812 6.1875 -3.472656 6.1875 -3.296875 Z M 5.59375 -3.296875 "/></g></g><g transform="translate(93.175121, 25.655526)"><g><path d="M 4.390625 -4.890625 C 4.765625 -4.890625 5.078125 -4.867188 5.328125 -4.828125 C 5.578125 -4.785156 5.78125 -4.71875 5.9375 -4.625 C 6.101562 -4.53125 6.226562 -4.414062 6.3125 -4.28125 C 6.40625 -4.144531 6.46875 -3.984375 6.5 -3.796875 C 6.539062 -3.609375 6.566406 -3.398438 6.578125 -3.171875 C 6.585938 -2.941406 6.59375 -2.679688 6.59375 -2.390625 C 6.59375 -2.109375 6.585938 -1.847656 6.578125 -1.609375 C 6.566406 -1.378906 6.539062 -1.171875 6.5 -0.984375 C 6.46875 -0.804688 6.40625 -0.648438 6.3125 -0.515625 C 6.226562 -0.378906 6.101562 -0.265625 5.9375 -0.171875 C 5.78125 -0.078125 5.578125 -0.0078125 5.328125 0.03125 C 5.078125 0.0703125 4.765625 0.09375 4.390625 0.09375 L 2.59375 0.09375 C 2.226562 0.09375 1.921875 0.0703125 1.671875 0.03125 C 1.421875 -0.0078125 1.210938 -0.078125 1.046875 -0.171875 C 0.890625 -0.265625 0.765625 -0.378906 0.671875 -0.515625 C 0.585938 -0.648438 0.523438 -0.804688 0.484375 -0.984375 C 0.441406 -1.171875 0.414062 -1.378906 0.40625 -1.609375 C 0.40625 -1.847656 0.40625 -2.109375 0.40625 -2.390625 C 0.40625 -2.679688 0.40625 -2.941406 0.40625 -3.171875 C 0.414062 -3.398438 0.441406 -3.609375 0.484375 -3.796875 C 0.523438 -3.984375 0.585938 -4.144531 0.671875 -4.28125 C 0.765625 -4.414062 0.890625 -4.53125 1.046875 -4.625 C 1.210938 -4.71875 1.421875 -4.785156 1.671875 -4.828125 C 1.921875 -4.867188 2.226562 -4.890625 2.59375 -4.890625 Z M 4.390625 -0.40625 C 4.660156 -0.40625 4.882812 -0.410156 5.0625 -0.421875 C 5.25 -0.441406 5.398438 -0.472656 5.515625 -0.515625 C 5.628906 -0.566406 5.71875 -0.632812 5.78125 -0.71875 C 5.851562 -0.8125 5.898438 -0.929688 5.921875 -1.078125 C 5.953125 -1.222656 5.96875 -1.40625 5.96875 -1.625 C 5.976562 -1.84375 5.984375 -2.097656 5.984375 -2.390625 C 5.984375 -2.691406 5.976562 -2.945312 5.96875 -3.15625 C 5.96875 -3.375 5.953125 -3.554688 5.921875 -3.703125 C 5.898438 -3.859375 5.851562 -3.976562 5.78125 -4.0625 C 5.71875 -4.15625 5.628906 -4.222656 5.515625 -4.265625 C 5.398438 -4.316406 5.25 -4.347656 5.0625 -4.359375 C 4.882812 -4.378906 4.660156 -4.390625 4.390625 -4.390625 L 2.59375 -4.390625 C 2.320312 -4.390625 2.09375 -4.378906 1.90625 -4.359375 C 1.726562 -4.347656 1.582031 -4.316406 1.46875 -4.265625 C 1.351562 -4.222656 1.257812 -4.15625 1.1875 -4.0625 C 1.125 -3.976562 1.078125 -3.859375 1.046875 -3.703125 C 1.023438 -3.554688 1.007812 -3.375 1 -3.15625 C 1 -2.945312 1 -2.691406 1 -2.390625 C 1 -2.097656 1 -1.84375 1 -1.625 C 1.007812 -1.40625 1.023438 -1.222656 1.046875 -1.078125 C 1.078125 -0.929688 1.125 -0.8125 1.1875 -0.71875 C 1.257812 -0.632812 1.351562 -0.566406 1.46875 -0.515625 C 1.582031 -0.472656 1.726562 -0.441406 1.90625 -0.421875 C 2.09375 -0.410156 2.320312 -0.40625 2.59375 -0.40625 Z M 4.390625 -0.40625 "/></g></g></g></svg>